<svg height='300px' width='300px'  fill="#0066CC" xmlns="http://www.w3.org/2000/svg" viewBox="0 0 100 100" x="0px" y="0px"><title>User Interface outline Vol1</title><path d="M35.53,83.07l-.3.16A2,2,0,0,0,36.16,87a2,2,0,0,0,.93-.23l.3-.16a2,2,0,1,0-1.86-3.54Z"></path><path d="M70.17,62l4.54,26.47L50.93,76a2,2,0,0,0-1.86,0l-9,4.73a2,2,0,1,0,1.86,3.54L50,80l26.43,13.9a2.09,2.09,0,0,0,.93.23,2,2,0,0,0,2-2.34l-5-29.43L95.67,41.49a2,2,0,0,0-1.11-3.41l-12-1.74A2,2,0,1,0,82,40.29l8,1.17L70.74,60.21A2,2,0,0,0,70.17,62Z"></path><path d="M76.72,39.53l.29,0a2,2,0,0,0,.28-4l-.21,0a2,2,0,0,0-.57,4Z"></path><path d="M71.83,34.78l-6.82-1L51.79,7a2,2,0,0,0-3.58,0L35,33.79,5.44,38.08a2,2,0,0,0-1.11,3.41L25.71,62.34,20.66,91.77a2,2,0,0,0,2,2.34,2.09,2.09,0,0,0,.93-.23l9.16-4.82a2,2,0,0,0-1.86-3.54l-5.58,2.93L29.83,62a2,2,0,0,0-.57-1.77L10,41.46l26.59-3.87a2,2,0,0,0,1.5-1.09L50,12.41,61.89,36.5a2,2,0,0,0,1.5,1.09l7.86,1.14a2,2,0,1,0,.58-3.95Z"></path></svg>